REM DIRINDEX 1\2\6,1\2\7,1\2\8,1\3\9,1\3\10,1\3\11,1\4\12,1\4\13,1\4\14,1\5\15,1\5\16,1\5\17,1\5\18
REM DIRNAME folder01,folder02,folder03,folder04,folder05,folder06,folder07,folder08,folder09,folder10,folder11,folder12,folder13,folder14,folder15,folder16,folder17,folder18
TITLE ""
FILE "" MP3
  TRACK 01 AUDIO
    TITLE "16:cjc019_7437"
    INDEX 01 00:00:00
  TRACK 02 AUDIO
    TITLE "0:"
    INDEX 01 00:01:15
  TRACK 03 AUDIO
    TITLE "18:cjc019_7438"
    INDEX 01 00:01:71
  TRACK 04 AUDIO
    TITLE "0:"
    INDEX 01 00:04:46
  TRACK 05 AUDIO
    TITLE "17:cjc019_7439"
    INDEX 01 00:05:20
  TRACK 06 AUDIO
    TITLE "0:"
    INDEX 01 00:06:55
  TRACK 07 AUDIO
    TITLE "16:cjc019_7440"
    INDEX 01 00:08:28
  TRACK 08 AUDIO
    TITLE "0:"
    INDEX 01 00:09:53
  TRACK 09 AUDIO
    TITLE "18:cjc019_7441"
    INDEX 01 00:10:23
  TRACK 10 AUDIO
    TITLE "0:"
    INDEX 01 00:11:27
  TRACK 11 AUDIO
    TITLE "17:cjc019_7442"
    INDEX 01 00:12:01
  TRACK 12 AUDIO
    TITLE "0:"
    INDEX 01 00:13:26
  TRACK 13 AUDIO
    TITLE "16:cjc019_7443"
    INDEX 01 00:15:07
  TRACK 14 AUDIO
    TITLE "0:"
    INDEX 01 00:16:18
  TRACK 15 AUDIO
    TITLE "18:cjc019_7444"
    INDEX 01 00:16:69
  TRACK 16 AUDIO
    TITLE "0:"
    INDEX 01 00:20:65
  TRACK 17 AUDIO
    TITLE "17:cjc019_7445"
    INDEX 01 00:21:43
  TRACK 18 AUDIO
    TITLE "0:"
    INDEX 01 00:22:58
  TRACK 19 AUDIO
    TITLE "16:cjc019_7446"
    INDEX 01 00:24:35
  TRACK 20 AUDIO
    TITLE "0:"
    INDEX 01 00:25:58
  TRACK 21 AUDIO
    TITLE "18:cjc019_7447"
    INDEX 01 00:26:36
  TRACK 22 AUDIO
    TITLE "0:"
    INDEX 01 00:30:01
  TRACK 23 AUDIO
    TITLE "17:cjc019_7448"
    INDEX 01 00:30:55
  TRACK 24 AUDIO
    TITLE "0:"
    INDEX 01 00:32:07
  TRACK 25 AUDIO
    TITLE "16:cjc019_7449"
    INDEX 01 00:33:62
  TRACK 26 AUDIO
    TITLE "0:"
    INDEX 01 00:35:21
  TRACK 27 AUDIO
    TITLE "18:cjc019_7450"
    INDEX 01 00:36:03
  TRACK 28 AUDIO
    TITLE "0:"
    INDEX 01 00:40:46
  TRACK 29 AUDIO
    TITLE "17:cjc019_7451"
    INDEX 01 00:41:20
  TRACK 30 AUDIO
    TITLE "0:"
    INDEX 01 00:42:55
  TRACK 31 AUDIO
    TITLE "16:cjc019_7452"
    INDEX 01 00:44:36
  TRACK 32 AUDIO
    TITLE "0:"
    INDEX 01 00:45:59
  TRACK 33 AUDIO
    TITLE "18:cjc019_7453"
    INDEX 01 00:46:49
  TRACK 34 AUDIO
    TITLE "0:"
    INDEX 01 00:47:64
  TRACK 35 AUDIO
    TITLE "17:cjc019_7454"
    INDEX 01 00:48:44
  TRACK 36 AUDIO
    TITLE "0:"
    INDEX 01 00:49:69
  TRACK 37 AUDIO
    TITLE "16:cjc019_7455"
    INDEX 01 00:51:50
  TRACK 38 AUDIO
    TITLE "0:"
    INDEX 01 00:52:59
  TRACK 39 AUDIO
    TITLE "18:cjc019_7456"
    INDEX 01 00:53:39
  TRACK 40 AUDIO
    TITLE "0:"
    INDEX 01 00:56:67
  TRACK 41 AUDIO
    TITLE "17:cjc019_7457"
    INDEX 01 00:57:39
  TRACK 42 AUDIO
    TITLE "0:"
    INDEX 01 00:58:52
  TRACK 43 AUDIO
    TITLE "16:cjc019_7458"
    INDEX 01 01:00:37
  TRACK 44 AUDIO
    TITLE "0:"
    INDEX 01 01:01:56
  TRACK 45 AUDIO
    TITLE "18:cjc019_7459"
    INDEX 01 01:02:40
  TRACK 46 AUDIO
    TITLE "0:"
    INDEX 01 01:03:59
  TRACK 47 AUDIO
    TITLE "17:cjc019_7460"
    INDEX 01 01:04:41
  TRACK 48 AUDIO
    TITLE "0:"
    INDEX 01 01:05:68
  TRACK 49 AUDIO
    TITLE "16:cjc019_7461"
    INDEX 01 01:07:49
  TRACK 50 AUDIO
    TITLE "0:"
    INDEX 01 01:08:70
  TRACK 51 AUDIO
    TITLE "18:cjc019_7462"
    INDEX 01 01:09:63
  TRACK 52 AUDIO
    TITLE "0:"
    INDEX 01 01:13:00
  TRACK 53 AUDIO
    TITLE "17:cjc019_7463"
    INDEX 01 01:13:53
  TRACK 54 AUDIO
    TITLE "0:"
    INDEX 01 01:14:74
  TRACK 55 AUDIO
    TITLE "16:cjc019_7464"
    INDEX 01 01:16:71
  TRACK 56 AUDIO
    TITLE "0:"
    INDEX 01 01:18:09
  TRACK 57 AUDIO
    TITLE "18:cjc019_7465"
    INDEX 01 01:18:60
  TRACK 58 AUDIO
    TITLE "0:"
    INDEX 01 01:20:06
  TRACK 59 AUDIO
    TITLE "17:cjc019_7466"
    INDEX 01 01:20:59
  TRACK 60 AUDIO
    TITLE "0:"
    INDEX 01 01:22:01
  TRACK 61 AUDIO
    TITLE "16:cjc019_7467"
    INDEX 01 01:23:58
  TRACK 62 AUDIO
    TITLE "0:"
    INDEX 01 01:25:04
  TRACK 63 AUDIO
    TITLE "18:cjc019_7468"
    INDEX 01 01:25:60
  TRACK 64 AUDIO
    TITLE "0:"
    INDEX 01 01:28:25
  TRACK 65 AUDIO
    TITLE "17:cjc019_7469"
    INDEX 01 01:28:74
  TRACK 66 AUDIO
    TITLE "0:"
    INDEX 01 01:30:22
  TRACK 67 AUDIO
    TITLE "16:cjc019_7470"
    INDEX 01 01:32:02
  TRACK 68 AUDIO
    TITLE "0:"
    INDEX 01 01:33:11
  TRACK 69 AUDIO
    TITLE "18:cjc019_7471"
    INDEX 01 01:33:70
  TRACK 70 AUDIO
    TITLE "0:"
    INDEX 01 01:36:35
  TRACK 71 AUDIO
    TITLE "17:cjc019_7472"
    INDEX 01 01:37:13
  TRACK 72 AUDIO
    TITLE "0:"
    INDEX 01 01:38:28
  TRACK 73 AUDIO
    TITLE "16:cjc019_7473"
    INDEX 01 01:40:15
  TRACK 74 AUDIO
    TITLE "0:"
    INDEX 01 01:41:40
  TRACK 75 AUDIO
    TITLE "18:cjc019_7474"
    INDEX 01 01:42:18
  TRACK 76 AUDIO
    TITLE "0:"
    INDEX 01 01:45:63
  TRACK 77 AUDIO
    TITLE "17:cjc019_7475"
    INDEX 01 01:46:45
  TRACK 78 AUDIO
    TITLE "0:"
    INDEX 01 01:47:68
  TRACK 79 AUDIO
    TITLE "16:cjc019_7476"
    INDEX 01 01:49:47
  TRACK 80 AUDIO
    TITLE "0:"
    INDEX 01 01:51:01
  TRACK 81 AUDIO
    TITLE "18:cjc019_7477"
    INDEX 01 01:51:56
  TRACK 82 AUDIO
    TITLE "0:"
    INDEX 01 01:53:12
  TRACK 83 AUDIO
    TITLE "17:cjc019_7478"
    INDEX 01 01:53:63
  TRACK 84 AUDIO
    TITLE "0:"
    INDEX 01 01:55:18
  TRACK 85 AUDIO
    TITLE "16:cjc019_7479"
    INDEX 01 01:56:73
  TRACK 86 AUDIO
    TITLE "0:"
    INDEX 01 01:57:72
  TRACK 87 AUDIO
    TITLE "18:cjc019_7480"
    INDEX 01 01:59:01
  TRACK 88 AUDIO
    TITLE "0:"
    INDEX 01 02:00:06
  TRACK 89 AUDIO
    TITLE "17:cjc019_7481"
    INDEX 01 02:00:65
  TRACK 90 AUDIO
    TITLE "0:"
    INDEX 01 02:02:03
  TRACK 91 AUDIO
    TITLE "16:cjc019_7482"
    INDEX 01 02:03:65
  TRACK 92 AUDIO
    TITLE "0:"
    INDEX 01 02:05:03
  TRACK 93 AUDIO
    TITLE "18:cjc019_7483"
    INDEX 01 02:05:68
  TRACK 94 AUDIO
    TITLE "0:"
    INDEX 01 02:07:37
  TRACK 95 AUDIO
    TITLE "17:cjc019_7484"
    INDEX 01 02:08:11
  TRACK 96 AUDIO
    TITLE "0:"
    INDEX 01 02:09:24
  TRACK 97 AUDIO
    TITLE "16:cjc019_7485"
    INDEX 01 02:11:08
  TRACK 98 AUDIO
    TITLE "0:"
    INDEX 01 02:12:29
  TRACK 99 AUDIO
    TITLE "18:cjc019_7486"
    INDEX 01 02:13:16
  TRACK 100 AUDIO
    TITLE "0:"
    INDEX 01 02:15:72
  TRACK 101 AUDIO
    TITLE "17:cjc019_7487"
    INDEX 01 02:16:48
  TRACK 102 AUDIO
    TITLE "0:"
    INDEX 01 02:17:71
  TRACK 103 AUDIO
    TITLE "16:cjc019_7488"
    INDEX 01 02:19:48
  TRACK 104 AUDIO
    TITLE "0:"
    INDEX 01 02:20:69
  TRACK 105 AUDIO
    TITLE "18:cjc019_7489"
    INDEX 01 02:21:51
  TRACK 106 AUDIO
    TITLE "0:"
    INDEX 01 02:23:52
  TRACK 107 AUDIO
    TITLE "17:cjc019_7490"
    INDEX 01 02:24:30
  TRACK 108 AUDIO
    TITLE "0:"
    INDEX 01 02:25:55
